<svg xmlns="http://www.w3.org/2000/svg" xmlns:xlink="http://www.w3.org/1999/xlink" width="1080" zoomAndPan="magnify" viewBox="0 0 810 809.999993" height="1080" preserveAspectRatio="xMidYMid meet" version="1.0"><path fill="#2bb826" d="M 404.722656 0.277344 C 181.234375 0.277344 0 181.511719 0 405 C 0 628.488281 181.234375 809.722656 404.722656 809.722656 C 628.207031 809.722656 809.445312 628.488281 809.445312 405 C 810 181.511719 629.320312 0.277344 404.722656 0.277344 Z M 404.722656 0.277344 " fill-opacity="1" fill-rule="nonzero"/><path fill="#ffffff" d="M 620.980469 232.105469 L 618.203125 229.878906 C 608.75 222.097656 597.078125 218.761719 585.957031 219.875 C 574.28125 220.984375 563.71875 225.988281 555.9375 235.441406 L 456.980469 352.1875 L 398.050781 422.789062 L 355.242188 474.492188 L 325.777344 443.359375 L 309.101562 426.125 L 251.285156 365.527344 C 242.945312 356.632812 231.824219 352.1875 220.152344 351.628906 C 209.03125 351.074219 197.359375 355.523438 189.019531 363.859375 L 186.238281 366.640625 C 168.449219 383.320312 167.894531 411.671875 184.570312 429.460938 L 241.832031 489.503906 L 258.511719 507.292969 L 324.667969 576.785156 C 332.449219 584.566406 342.457031 589.570312 352.464844 590.128906 C 353.019531 590.128906 353.019531 590.128906 353.574219 590.128906 C 354.132812 590.128906 354.6875 590.128906 355.800781 590.128906 C 355.800781 590.128906 355.800781 590.128906 356.355469 590.128906 C 358.023438 590.128906 359.691406 590.128906 361.914062 590.128906 C 373.589844 589.015625 384.152344 584.011719 391.933594 574.5625 L 490.335938 457.8125 L 528.140625 411.671875 L 626.539062 294.925781 C 642.105469 276.023438 639.882812 248.226562 620.980469 232.105469 Z M 620.980469 232.105469 " fill-opacity="1" fill-rule="nonzero"/></svg>
