<svg xmlns="http://www.w3.org/2000/svg" xmlns:xlink="http://www.w3.org/1999/xlink" width="1080" zoomAndPan="magnify" viewBox="0 0 810 809.999993" height="1080" preserveAspectRatio="xMidYMid meet" version="1.0"><path fill="#f8ab44" d="M 810.191406 405.160156 C 810.191406 563.0625 719.792969 699.914062 587.894531 766.625 C 577.382812 771.992188 566.585938 776.851562 555.570312 781.265625 C 546.996094 784.726562 538.265625 787.867188 529.40625 790.726562 C 528.644531 790.980469 527.847656 791.234375 527.085938 791.488281 C 526.707031 791.617188 526.324219 791.742188 525.945312 791.835938 C 513.433594 795.773438 500.703125 799.109375 487.683594 801.746094 C 484.855469 802.347656 482.03125 802.917969 479.203125 803.425781 C 473.011719 804.570312 466.789062 805.585938 460.535156 806.445312 C 442.4375 808.921875 423.925781 810.191406 405.160156 810.191406 C 181.464844 810.191406 0.128906 628.851562 0.128906 405.160156 C 0.128906 181.464844 181.464844 0.128906 405.160156 0.128906 C 533.820312 0.128906 648.507812 60.140625 722.679688 153.710938 C 738.050781 173.050781 751.671875 193.847656 763.292969 215.851562 C 764.625 218.328125 765.929688 220.835938 767.199219 223.378906 C 774.914062 238.777344 781.742188 254.714844 787.488281 271.164062 C 789.519531 276.941406 791.425781 282.785156 793.171875 288.660156 C 793.234375 288.914062 793.332031 289.199219 793.394531 289.453125 C 794.09375 291.738281 794.757812 293.992188 795.394531 296.3125 C 797.265625 303.042969 798.980469 309.839844 800.507812 316.695312 C 806.855469 345.179688 810.191406 374.773438 810.191406 405.160156 Z M 810.191406 405.160156 " fill-opacity="1" fill-rule="nonzero"/><path fill="#f08026" d="M 810.191406 405.160156 C 810.191406 563.0625 719.792969 699.914062 587.894531 766.625 C 577.382812 771.992188 566.585938 776.851562 555.570312 781.265625 C 546.996094 784.726562 538.265625 787.867188 529.40625 790.726562 C 528.644531 790.980469 527.847656 791.234375 527.085938 791.488281 C 526.707031 791.617188 526.324219 791.742188 525.945312 791.835938 C 513.433594 795.773438 500.703125 799.109375 487.683594 801.746094 L 235.792969 682.449219 L 592.816406 186.671875 L 787.488281 271.164062 C 789.519531 276.941406 791.425781 282.785156 793.171875 288.660156 C 793.234375 288.914062 793.332031 289.199219 793.394531 289.453125 C 794.09375 291.738281 794.757812 293.992188 795.394531 296.3125 C 797.265625 303.042969 798.980469 309.839844 800.507812 316.695312 C 806.855469 345.179688 810.191406 374.773438 810.191406 405.160156 Z M 810.191406 405.160156 " fill-opacity="1" fill-rule="nonzero"/><path fill="#383838" d="M 574.523438 682.453125 L 235.792969 682.453125 C 214.835938 682.453125 197.691406 665.304688 197.691406 644.347656 L 197.691406 220.074219 C 197.691406 199.117188 214.835938 181.972656 235.792969 181.972656 L 574.558594 181.972656 C 595.511719 181.972656 612.660156 199.117188 612.660156 220.074219 L 612.660156 644.347656 C 612.628906 665.304688 595.480469 682.453125 574.523438 682.453125 Z M 574.523438 682.453125 " fill-opacity="1" fill-rule="nonzero"/><path fill="#ffffff" d="M 558.363281 658.542969 L 251.984375 658.542969 C 233.03125 658.542969 217.535156 643.046875 217.535156 624.089844 L 217.535156 240.332031 C 217.535156 221.375 233.03125 205.882812 251.984375 205.882812 L 558.363281 205.882812 C 577.320312 205.882812 592.816406 221.375 592.816406 240.332031 L 592.816406 624.058594 C 592.816406 643.046875 577.320312 658.542969 558.363281 658.542969 Z M 558.363281 658.542969 " fill-opacity="1" fill-rule="nonzero"/><path fill="#c56aa7" d="M 469.011719 239.570312 L 339.527344 239.570312 C 331.589844 239.570312 325.078125 233.0625 325.078125 225.125 L 325.078125 176.542969 C 325.078125 174.160156 327.015625 172.222656 329.398438 172.222656 L 479.140625 172.222656 C 481.523438 172.222656 483.460938 174.160156 483.460938 176.542969 L 483.460938 225.125 C 483.460938 233.0625 476.980469 239.570312 469.011719 239.570312 Z M 469.011719 239.570312 " fill-opacity="1" fill-rule="nonzero"/><path fill="#c56aa7" d="M 441.292969 127.867188 L 367.277344 127.867188 C 356.992188 127.867188 348.671875 136.183594 348.671875 146.472656 L 348.671875 172.222656 L 459.898438 172.222656 L 459.898438 146.472656 C 459.898438 136.183594 451.550781 127.867188 441.292969 127.867188 Z M 432.085938 164.476562 L 376.488281 164.476562 L 376.488281 151.617188 C 376.488281 146.472656 380.644531 142.3125 385.789062 142.3125 L 422.8125 142.3125 C 427.957031 142.3125 432.117188 146.472656 432.117188 151.617188 L 432.117188 164.476562 Z M 432.085938 164.476562 " fill-opacity="1" fill-rule="nonzero"/><path fill="#dadada" d="M 244.144531 289.675781 L 566.207031 289.675781 L 566.207031 311.839844 L 244.144531 311.839844 Z M 244.144531 289.675781 " fill-opacity="1" fill-rule="nonzero"/><path fill="#dadada" d="M 244.144531 350.894531 L 566.207031 350.894531 L 566.207031 373.058594 L 244.144531 373.058594 Z M 244.144531 350.894531 " fill-opacity="1" fill-rule="nonzero"/><path fill="#dadada" d="M 244.144531 412.144531 L 566.207031 412.144531 L 566.207031 434.308594 L 244.144531 434.308594 Z M 244.144531 412.144531 " fill-opacity="1" fill-rule="nonzero"/><path fill="#dadada" d="M 244.144531 473.394531 L 566.207031 473.394531 L 566.207031 495.558594 L 244.144531 495.558594 Z M 244.144531 473.394531 " fill-opacity="1" fill-rule="nonzero"/><path fill="#dadada" d="M 244.144531 534.644531 L 566.207031 534.644531 L 566.207031 556.808594 L 244.144531 556.808594 Z M 244.144531 534.644531 " fill-opacity="1" fill-rule="nonzero"/><path fill="#dadada" d="M 244.144531 595.863281 L 566.207031 595.863281 L 566.207031 618.027344 L 244.144531 618.027344 Z M 244.144531 595.863281 " fill-opacity="1" fill-rule="nonzero"/></svg>
