<svg xmlns="http://www.w3.org/2000/svg" xmlns:xlink="http://www.w3.org/1999/xlink" width="1080" zoomAndPan="magnify" viewBox="0 0 810 809.999993" height="1080" preserveAspectRatio="xMidYMid meet" version="1.0"><defs><clipPath id="id1"><path d="M -0.00390625 404.992188 C -0.00390625 628.671875 181.324219 810 405 810 C 628.679688 810 810.007812 628.671875 810.007812 404.992188 C 810.007812 181.3125 628.679688 -0.0117188 405 -0.0117188 C 181.324219 -0.0117188 -0.00390625 181.3125 -0.00390625 404.992188 " clip-rule="nonzero"/></clipPath><clipPath id="id2"><path d="M -0.00390625 404.992188 C -0.00390625 628.671875 181.324219 810 405 810 C 628.679688 810 810.007812 628.671875 810.007812 404.992188 C 810.007812 181.3125 628.679688 -0.0117188 405 -0.0117188 C 181.324219 -0.0117188 -0.00390625 181.3125 -0.00390625 404.992188 " clip-rule="nonzero"/></clipPath><linearGradient x1="133.903" gradientTransform="matrix(3.432248, 0, 0, -3.432248, -54.586403, 858.043223)" y1="13.998" x2="133.903" gradientUnits="userSpaceOnUse" y2="249.994462" id="id3"><stop stop-opacity="1" stop-color="rgb(11.399841%, 57.598877%, 82.398987%)" offset="0"/><stop stop-opacity="1" stop-color="rgb(11.564636%, 57.777405%, 82.501221%)" offset="0.03125"/><stop stop-opacity="1" stop-color="rgb(11.895752%, 58.132935%, 82.707214%)" offset="0.0625"/><stop stop-opacity="1" stop-color="rgb(12.226868%, 58.48999%, 82.914734%)" offset="0.09375"/><stop stop-opacity="1" stop-color="rgb(12.557983%, 58.84552%, 83.120728%)" offset="0.125"/><stop stop-opacity="1" stop-color="rgb(12.889099%, 59.202576%, 83.326721%)" offset="0.15625"/><stop stop-opacity="1" stop-color="rgb(13.220215%, 59.558105%, 83.532715%)" offset="0.1875"/><stop stop-opacity="1" stop-color="rgb(13.551331%, 59.913635%, 83.738708%)" offset="0.21875"/><stop stop-opacity="1" stop-color="rgb(13.882446%, 60.270691%, 83.944702%)" offset="0.25"/><stop stop-opacity="1" stop-color="rgb(14.213562%, 60.626221%, 84.152222%)" offset="0.28125"/><stop stop-opacity="1" stop-color="rgb(14.544678%, 60.983276%, 84.358215%)" offset="0.3125"/><stop stop-opacity="1" stop-color="rgb(14.877319%, 61.338806%, 84.564209%)" offset="0.34375"/><stop stop-opacity="1" stop-color="rgb(15.208435%, 61.695862%, 84.770203%)" offset="0.375"/><stop stop-opacity="1" stop-color="rgb(15.539551%, 62.051392%, 84.976196%)" offset="0.40625"/><stop stop-opacity="1" stop-color="rgb(15.870667%, 62.408447%, 85.18219%)" offset="0.4375"/><stop stop-opacity="1" stop-color="rgb(16.201782%, 62.763977%, 85.389709%)" offset="0.46875"/><stop stop-opacity="1" stop-color="rgb(16.532898%, 63.121033%, 85.595703%)" offset="0.5"/><stop stop-opacity="1" stop-color="rgb(16.864014%, 63.476562%, 85.801697%)" offset="0.53125"/><stop stop-opacity="1" stop-color="rgb(17.195129%, 63.833618%, 86.00769%)" offset="0.5625"/><stop stop-opacity="1" stop-color="rgb(17.526245%, 64.189148%, 86.213684%)" offset="0.59375"/><stop stop-opacity="1" stop-color="rgb(17.857361%, 64.546204%, 86.419678%)" offset="0.625"/><stop stop-opacity="1" stop-color="rgb(18.188477%, 64.901733%, 86.627197%)" offset="0.65625"/><stop stop-opacity="1" stop-color="rgb(18.519592%, 65.258789%, 86.833191%)" offset="0.6875"/><stop stop-opacity="1" stop-color="rgb(18.852234%, 65.614319%, 87.039185%)" offset="0.71875"/><stop stop-opacity="1" stop-color="rgb(19.18335%, 65.969849%, 87.245178%)" offset="0.75"/><stop stop-opacity="1" stop-color="rgb(19.514465%, 66.326904%, 87.451172%)" offset="0.78125"/><stop stop-opacity="1" stop-color="rgb(19.845581%, 66.682434%, 87.657166%)" offset="0.8125"/><stop stop-opacity="1" stop-color="rgb(20.176697%, 67.03949%, 87.864685%)" offset="0.84375"/><stop stop-opacity="1" stop-color="rgb(20.507812%, 67.39502%, 88.070679%)" offset="0.875"/><stop stop-opacity="1" stop-color="rgb(20.838928%, 67.752075%, 88.276672%)" offset="0.90625"/><stop stop-opacity="1" stop-color="rgb(21.170044%, 68.107605%, 88.482666%)" offset="0.9375"/><stop stop-opacity="1" stop-color="rgb(21.50116%, 68.464661%, 88.68866%)" offset="0.96875"/><stop stop-opacity="1" stop-color="rgb(21.832275%, 68.82019%, 88.894653%)" offset="1"/></linearGradient></defs><g clip-path="url(#id1)"><g clip-path="url(#id2)"><rect x="-81" fill="url(#id3)" width="972" y="-80.999999" height="971.999992"/></g></g><path fill="#c8daea" d="M 274.148438 434.59375 L 322.199219 567.59375 C 322.199219 567.59375 328.207031 580.03125 334.640625 580.03125 C 341.078125 580.03125 436.75 480.496094 436.75 480.496094 L 543.148438 274.988281 L 275.863281 400.265625 Z M 274.148438 434.59375 " fill-opacity="1" fill-rule="nonzero"/><path fill="#a9c6d8" d="M 337.855469 468.703125 L 328.632812 566.734375 C 328.632812 566.734375 324.769531 596.765625 354.800781 566.734375 C 384.835938 536.703125 413.578125 513.535156 413.578125 513.535156 " fill-opacity="1" fill-rule="nonzero"/><path fill="#ffffff" d="M 275.011719 439.34375 L 176.179688 407.136719 C 176.179688 407.136719 164.382812 402.351562 168.171875 391.480469 C 168.957031 389.238281 170.53125 387.335938 175.25 384.042969 C 197.15625 368.78125 580.613281 230.949219 580.613281 230.949219 C 580.613281 230.949219 591.441406 227.304688 597.84375 229.730469 C 600.765625 230.835938 602.632812 232.089844 604.207031 236.664062 C 604.78125 238.328125 605.109375 241.867188 605.0625 245.386719 C 605.03125 247.925781 604.722656 250.277344 604.496094 253.96875 C 602.160156 291.652344 532.28125 572.886719 532.28125 572.886719 C 532.28125 572.886719 528.097656 589.34375 513.117188 589.902344 C 507.652344 590.109375 501.023438 589 493.09375 582.179688 C 463.695312 556.890625 362.078125 488.597656 339.628906 473.582031 C 338.359375 472.738281 338 471.636719 337.785156 470.5625 C 337.46875 468.984375 339.15625 467.015625 339.15625 467.015625 C 339.15625 467.015625 516.097656 309.730469 520.804688 293.230469 C 521.167969 291.949219 519.800781 291.316406 517.945312 291.871094 C 506.191406 296.195312 302.46875 424.835938 279.984375 439.042969 C 278.671875 439.875 274.984375 439.339844 274.984375 439.339844 " fill-opacity="1" fill-rule="nonzero"/></svg>
