<svg xmlns="http://www.w3.org/2000/svg" xmlns:xlink="http://www.w3.org/1999/xlink" width="1080" zoomAndPan="magnify" viewBox="0 0 810 809.999993" height="1080" preserveAspectRatio="xMidYMid meet" version="1.0"><defs><clipPath id="id1"><path d="M 405.003906 0.25 C 181.800781 0.25 0.25 181.808594 0.25 405.003906 C 0.25 493.515625 28.804688 575.613281 77.347656 642.246094 L 26.890625 792.644531 L 182.445312 742.914062 C 246.445312 785.269531 322.835938 809.777344 405.171875 809.777344 C 628.375 809.777344 809.925781 628.210938 809.925781 405.023438 C 809.925781 181.835938 628.367188 0.269531 405.171875 0.269531 L 404.9375 0.269531 Z M 405.003906 0.25 " clip-rule="nonzero"/></clipPath></defs><path fill="#fefefe" d="M 405 809.746094 C 395.167969 809.75 385.347656 809.390625 375.542969 808.675781 C 365.734375 807.960938 355.96875 806.890625 346.238281 805.460938 C 336.511719 804.035156 326.847656 802.253906 317.25 800.121094 C 307.652344 797.988281 298.144531 795.507812 288.726562 792.683594 C 279.308594 789.855469 270.007812 786.691406 260.820312 783.183594 C 251.636719 779.679688 242.589844 775.84375 233.683594 771.679688 C 224.777344 767.511719 216.03125 763.027344 207.453125 758.226562 C 198.875 753.421875 190.480469 748.3125 182.273438 742.898438 L 26.652344 792.609375 L 77.101562 642.253906 C 70.871094 633.707031 64.988281 624.933594 59.453125 615.921875 C 53.917969 606.914062 48.746094 597.699219 43.9375 588.28125 C 39.125 578.863281 34.695312 569.269531 30.644531 559.5 C 26.59375 549.734375 22.933594 539.820312 19.667969 529.765625 C 16.398438 519.707031 13.53125 509.535156 11.066406 499.253906 C 8.601562 488.96875 6.546875 478.605469 4.898438 468.160156 C 3.253906 457.714844 2.019531 447.21875 1.203125 436.675781 C 0.386719 426.132812 -0.015625 415.574219 0 405 C 0 181.792969 181.566406 0.253906 404.746094 0.253906 C 627.925781 0.253906 809.492188 181.792969 809.492188 405 C 809.492188 628.207031 628.003906 809.746094 404.746094 809.746094 Z M 405 809.746094 " fill-opacity="1" fill-rule="nonzero"/><g clip-path="url(#id1)"><path fill="#40c252" d="M 0.25 0.25 L 0.25 809.777344 L 809.925781 809.777344 L 809.925781 0.25 Z M 0.25 0.25 " fill-opacity="1" fill-rule="nonzero"/></g><path fill="#fefefe" d="M 291.980469 205.839844 C 284.386719 187.035156 278.183594 186.351562 266.289062 185.589844 L 252.71875 185.085938 C 237.28125 185.085938 221.078125 189.640625 211.308594 199.589844 C 199.410156 211.738281 169.898438 240.039062 169.898438 298.105469 C 169.898438 356.171875 212.246094 412.316406 217.992188 420.1875 C 223.941406 427.78125 300.5625 548.925781 419.554688 598.183594 C 512.601562 636.734375 540.195312 633.167969 561.378906 628.636719 C 592.3125 621.980469 631.089844 599.121094 640.863281 571.53125 C 650.632812 543.941406 650.632812 520.398438 647.746094 515.335938 C 644.859375 510.273438 637.039062 507.742188 625.144531 501.542969 C 613.246094 495.339844 555.433594 467.039062 544.472656 463.21875 C 533.765625 459.167969 523.539062 460.613281 515.4375 472.027344 C 504.046875 487.972656 492.835938 504.175781 483.796875 513.894531 C 476.660156 521.488281 464.992188 522.5 455.246094 518.449219 C 442.160156 512.984375 405.507812 500.125 360.324219 459.902344 C 325.339844 428.769531 301.546875 389.9375 294.636719 378.296875 C 287.726562 366.398438 293.929688 359.488281 299.394531 353.058594 C 305.34375 345.667969 311.039062 340.453125 317.015625 333.566406 C 322.988281 326.683594 326.304688 323.089844 330.101562 315.015625 C 334.148438 307.421875 331.289062 299.066406 328.429688 293.117188 C 325.570312 287.171875 301.777344 229.078125 292.03125 205.539062 Z M 291.980469 205.839844 " fill-opacity="1" fill-rule="nonzero"/></svg>
